<svg xmlns="http://www.w3.org/2000/svg" width="1024" height="576" viewBox="0 0 1024 576" role="img" aria-labelledby="title desc">
<title id="title">Powered Descent Lab: recorded plateau flight</title>
<desc id="desc">Retained policy-3 flight positions across a 900-metre transfer. Three replans clear a 315-metre plateau before a verified target landing. Both plot axes use the same scale. The vehicle marker is schematic.</desc>
<rect width="1024" height="576" fill="#101a21"/>
<g font-family="sans-serif" fill="#b4c7d0">
<text x="72" y="65" font-size="15" letter-spacing="2">RECORDED FLIGHT</text>
<text x="72" y="102" font-size="29" fill="#e8f1f4">Terrain-aware landing</text>
<text x="950" y="66" text-anchor="end" font-size="16">900 m · 46.4 s</text>
<g stroke="#24343e" stroke-width="1"><path d="M72 480.00H950"/><path d="M72 408.03H950"/><path d="M72 336.07H950"/><path d="M72 264.10H950"/><path d="M72 192.13H950"/></g>
<polygon points="72,480 72.00,480.00 174.19,480.00 200.10,480.00 413.84,480.00 446.23,253.30 640.54,253.30 672.93,480.00 821.90,480.00 847.81,480.00 950.00,480.00 950,530 72,530" fill="#293a43"/>
<polyline points="72.00,480.00 174.19,480.00 200.10,480.00 413.84,480.00 446.23,253.30 640.54,253.30 672.93,480.00 821.90,480.00 847.81,480.00 950.00,480.00" fill="none" stroke="#7f929b" stroke-width="2"/>
<polyline points="187.15,476.40 187.15,476.37 187.15,476.28 187.15,476.14 187.15,475.93 187.15,475.67 187.15,475.35 187.15,475.00 187.14,474.63 187.14,474.25 187.14,473.86 187.14,473.45 187.14,473.02 187.14,472.59 187.14,472.14 187.14,471.67 187.15,471.19 187.16,470.70 187.17,470.20 187.19,469.68 187.21,469.15 187.24,468.61 187.27,468.05 187.30,467.48 187.35,466.90 187.39,466.31 187.45,465.71 187.51,465.09 187.58,464.46 187.65,463.82 187.73,463.17 187.83,462.51 187.93,461.83 188.04,461.15 188.15,460.45 188.28,459.74 188.42,459.02 188.57,458.29 188.73,457.55 188.90,456.80 189.09,456.04 189.28,455.27 189.49,454.49 189.71,453.69 189.95,452.89 190.20,452.08 190.46,451.26 190.74,450.43 191.03,449.59 191.34,448.74 191.66,447.89 192.00,447.02 192.35,446.14 192.73,445.26 193.12,444.37 193.52,443.47 193.95,442.56 194.39,441.64 194.85,440.71 195.33,439.78 195.84,438.84 196.36,437.89 196.90,436.93 197.46,435.97 198.04,435.00 198.64,434.02 199.27,433.03 199.92,432.04 200.59,431.04 201.28,430.03 202.00,429.02 202.74,428.00 203.51,426.98 204.29,425.94 205.11,424.91 205.95,423.86 206.81,422.81 207.71,421.76 208.62,420.70 209.57,419.63 210.54,418.56 211.54,417.48 212.57,416.40 213.62,415.32 214.71,414.23 215.82,413.13 216.96,412.03 218.14,410.92 219.34,409.82 220.57,408.70 221.84,407.59 223.14,406.46 224.46,405.34 225.83,404.21 227.22,403.08 228.64,401.94 230.10,400.80 231.60,399.66 233.13,398.52 234.69,397.37 236.29,396.22 237.92,395.07 239.59,393.91 241.29,392.75 243.03,391.59 244.81,390.43 246.62,389.27 248.48,388.09 250.36,386.90 252.26,385.68 254.15,384.43 256.05,383.16 257.95,381.87 259.85,380.55 261.75,379.20 263.65,377.83 265.55,376.44 267.44,375.02 269.34,373.57 271.24,372.10 273.14,370.60 275.04,369.08 276.94,367.53 278.84,365.96 280.74,364.36 282.63,362.74 284.53,361.09 286.43,359.42 288.33,357.72 290.23,355.99 292.13,354.25 294.03,352.47 295.93,350.67 297.82,348.85 299.72,347.00 301.62,345.12 303.52,343.22 305.42,341.29 307.32,339.34 309.22,337.36 311.11,335.36 313.01,333.34 314.91,331.28 316.81,329.20 318.71,327.10 320.61,324.97 322.51,322.82 324.41,320.64 326.30,318.44 328.20,316.21 330.10,313.95 332.00,311.67 333.90,309.37 335.80,307.04 337.70,304.68 339.60,302.30 341.49,299.90 343.39,297.46 345.29,295.01 347.19,292.53 349.09,290.02 350.99,287.49 352.89,284.93 354.78,282.35 356.68,279.74 358.58,277.10 360.48,274.44 362.38,271.81 364.28,269.25 366.18,266.76 368.08,264.34 369.97,261.99 371.87,259.71 373.77,257.50 375.67,255.36 377.57,253.30 379.47,251.30 381.37,249.37 383.27,247.52 385.16,245.73 387.06,244.02 388.96,242.38 390.86,240.80 392.76,239.30 394.66,237.87 396.56,236.51 398.45,235.22 400.35,234.00 402.25,232.85 404.15,231.77 406.05,230.76 407.95,229.82 409.85,228.96 411.75,228.16 413.64,227.43 415.54,226.78 417.44,226.19 419.34,225.68 421.24,225.24 423.14,224.86 425.04,224.56 426.94,224.33 428.83,224.17 430.73,224.08 432.63,224.06 434.53,224.11 436.43,224.23 438.33,224.42 440.23,224.68 442.12,225.02 444.02,225.42 445.92,225.90 447.82,226.44 449.72,227.06 451.63,227.69 453.55,228.30 455.47,228.89 457.39,229.45 459.31,229.98 461.23,230.49 463.15,230.98 465.07,231.44 466.99,231.87 468.91,232.28 470.83,232.66 472.75,233.02 474.67,233.35 476.59,233.66 478.51,233.94 480.43,234.20 482.35,234.43 484.27,234.64 486.19,234.82 488.11,234.98 490.03,235.11 491.95,235.21 493.88,235.29 495.80,235.35 497.72,235.38 499.64,235.38 501.56,235.36 503.48,235.32 505.40,235.25 507.32,235.15 509.24,235.03 511.16,234.88 513.08,234.71 515.00,234.51 516.92,234.29 518.84,234.04 520.76,233.77 522.68,233.47 524.60,233.15 526.52,232.80 528.44,232.47 530.36,232.22 532.28,232.04 534.20,231.93 536.12,231.89 538.04,231.92 539.96,232.02 541.88,232.19 543.80,232.44 545.72,232.75 547.64,233.13 549.56,233.59 551.50,234.08 553.49,234.56 555.50,235.02 557.53,235.46 559.57,235.87 561.60,236.26 563.64,236.62 565.67,236.95 567.70,237.27 569.74,237.55 571.77,237.81 573.81,238.05 575.84,238.25 577.87,238.44 579.91,238.60 581.94,238.73 583.98,238.84 586.01,238.92 588.05,238.98 590.08,239.01 592.11,239.02 594.15,239.00 596.18,238.96 598.22,238.89 600.25,238.80 602.28,238.68 604.32,238.54 606.35,238.37 608.39,238.17 610.42,237.95 612.45,237.74 614.49,237.61 616.52,237.54 618.56,237.54 620.59,237.61 622.62,237.76 624.66,237.97 626.69,238.26 628.73,238.61 630.76,239.04 632.79,239.54 634.83,240.10 636.86,240.74 638.90,241.45 640.93,242.23 642.97,243.08 645.00,244.00 647.03,244.99 649.07,246.05 651.10,247.18 653.14,248.39 655.17,249.66 657.20,251.00 659.24,252.42 661.27,253.90 663.31,255.46 665.34,257.09 667.37,258.78 669.41,260.55 671.44,262.39 673.48,264.30 675.51,266.28 677.54,268.33 679.58,270.45 681.61,272.64 683.65,274.90 685.68,277.23 687.71,279.64 689.75,282.11 691.78,284.66 693.82,287.27 695.85,289.96 697.89,292.71 699.92,295.50 701.96,298.27 704.01,301.02 706.06,303.75 708.11,306.46 710.17,309.14 712.22,311.81 714.28,314.45 716.33,317.07 718.39,319.67 720.44,322.25 722.48,324.81 724.53,327.34 726.57,329.86 728.60,332.35 730.62,334.82 732.64,337.27 734.65,339.70 736.66,342.11 738.65,344.49 740.63,346.86 742.61,349.20 744.57,351.52 746.52,353.82 748.45,356.10 750.38,358.36 752.29,360.60 754.18,362.81 756.06,365.01 757.92,367.18 759.77,369.33 761.61,371.46 763.42,373.57 765.22,375.65 767.00,377.72 768.76,379.76 770.50,381.79 772.22,383.79 773.92,385.77 775.60,387.73 777.26,389.66 778.90,391.58 780.52,393.47 782.12,395.35 783.69,397.20 785.25,399.03 786.78,400.84 788.28,402.63 789.76,404.39 791.22,406.14 792.66,407.86 794.07,409.57 795.46,411.25 796.82,412.91 798.16,414.55 799.47,416.16 800.76,417.76 802.02,419.33 803.26,420.89 804.47,422.42 805.66,423.93 806.82,425.42 807.95,426.89 809.06,428.33 810.15,429.76 811.20,431.16 812.24,432.54 813.24,433.91 814.22,435.25 815.18,436.56 816.10,437.86 817.01,439.14 817.88,440.39 818.74,441.62 819.56,442.84 820.36,444.03 821.14,445.20 821.89,446.34 822.61,447.47 823.31,448.57 823.99,449.66 824.64,450.72 825.27,451.76 825.87,452.78 826.45,453.78 827.01,454.76 827.54,455.71 828.05,456.65 828.54,457.56 829.01,458.45 829.45,459.32 829.87,460.17 830.28,461.00 830.66,461.81 831.02,462.59 831.36,463.36 831.68,464.10 831.98,464.82 832.26,465.52 832.52,466.20 832.77,466.86 833.00,467.49 833.21,468.11 833.41,468.70 833.59,469.27 833.75,469.83 833.90,470.35 834.04,470.86 834.16,471.35 834.27,471.82 834.37,472.26 834.46,472.68 834.53,473.08 834.60,473.46 834.66,473.82 834.70,474.16 834.74,474.48 834.77,474.77 834.80,475.05 834.82,475.30 834.83,475.53 834.84,475.74 834.85,475.93 834.85,476.10 834.85,476.24 834.85,476.37 834.85,476.41" fill="none" stroke="#81dfca" stroke-width="3.5" stroke-linejoin="round"/>
<circle cx="440.23" cy="224.68" r="7" fill="#101a21" stroke="#ffbe78" stroke-width="2.5"/><circle cx="526.84" cy="232.74" r="7" fill="#101a21" stroke="#ffbe78" stroke-width="2.5"/><circle cx="611.10" cy="237.88" r="7" fill="#101a21" stroke="#ffbe78" stroke-width="2.5"/>
<path d="M173.15 481h28M820.85 481h28" stroke="#81dfca" stroke-width="3"/>
<g transform="translate(834.85 476.41) rotate(-0.02)">
<path d="M0-15L5-7V6H-5V-7Z" fill="#e8f1f4" stroke="#101a21" stroke-width="1.5"/>
<path d="M-5 2L-9 9H-3M5 2L9 9H3" fill="#b4c7d0"/>
</g>
<text x="187.15" y="511" text-anchor="middle" font-size="14">Launch</text>
<text x="834.85" y="511" text-anchor="middle" font-size="14">Touchdown</text>
<circle cx="79" cy="553" r="4" fill="#81dfca"/><text x="93" y="558" font-size="14">Target landing</text>
<circle cx="256" cy="553" r="4" fill="none" stroke="#ffbe78" stroke-width="2"/><text x="270" y="558" font-size="14">3 replans</text>
<text x="950" y="558" text-anchor="end" font-size="13">v2_plateau_wide · policy 3</text>
</g></svg>
